#!OML:ASF C:\ViconDB\ViconDB\414\Spring2016\041811\Spring2016.ASF
:FULLY-SPECIFIED
:DEGREES
227
root 8.85181 18.0155 -11.7641 -180.388 -2.51088 -184.297
lowerback -0.244329 0.401357 -2.8788
upperback 0.180786 0.543394 0.12427
thorax 0.29419 0.26438 1.74329
lowerneck -12.2842 0.80239 -9.00114
upperneck 27.9298 -1.27976 9.65611
head 11.0924 -1.08304 4.81755
rclavicle -3.05942e-015 1.43125e-014
rhumerus -84.2966 32.2967 -116.538
rradius 86.0481
rwrist 31.5996
rhand -47.5451 0.169472
rfingers 7.12502
rthumb -20.2312 -28.7969
lclavicle -3.05942e-015 1.43125e-014
lhumerus -91.9769 -44.7706 127.286
lradius 76.2074
lwrist -21.6087
lhand -43.1076 -1.29351
lfingers 7.12502
lthumb -15.962 28.0688
rfemur 334.295 154.44 -353.5
rtibia 54.5079
rfoot -345.202 -76.8484
rtoes -22.1392
lfemur -8.56555 -8.2805 -28.9432
ltibia 28.6786
lfoot -17.7853 -14.0307
ltoes -6.95462
228
root 8.79943 17.9994 -11.9383 -180.437 -2.40491 -184.553
lowerback -0.389037 0.299918 -2.58311
upperback 0.22841 0.412367 0.106381
thorax 0.433001 0.197413 1.55968
lowerneck -12.2625 0.938645 -8.80878
upperneck 27.967 -0.982537 9.16462
head 11.069 -0.983103 4.63589
rclavicle -1.12748e-015 1.74931e-014
rhumerus -84.0752 32.0963 -116.378
rradius 86.3515
rwrist 31.6658
rhand -47.5778 0.280941
rfingers 7.12502
rthumb -20.2627 -28.6821
lclavicle -1.12748e-015 1.74931e-014
lhumerus -92.2526 -44.6819 127.361
lradius 76.2119
lwrist -21.8877
lhand -43.3686 -0.539077
lfingers 7.12502
lthumb -16.2133 28.8029
rfemur 337.732 154.082 -352.768
rtibia 52.3945
rfoot -350.251 -74.8412
rtoes -22.2587
lfemur -7.47774 -7.78474 -29.4802
ltibia 28.1192
lfoot -18.3555 -14.1941
ltoes -7.3735
229
root 8.74382 17.9815 -12.1233 -180.39 -2.04978 -185.021
lowerback -0.736482 0.216207 -2.55373
upperback 0.288816 0.311635 0.114768
thorax 0.694443 0.143249 1.55291
lowerneck -12.4402 1.13695 -8.7699
upperneck 28.1371 -0.566901 8.73607
head 11.1256 -0.838156 4.52798
rclavicle -4.7522e-016 1.03368e-014
rhumerus -83.9501 32.1037 -116.183
rradius 86.6639
rwrist 31.7991
rhand -47.2889 0.561409
rfingers 7.12502
rthumb -19.985 -28.4309
lclavicle -4.7522e-016 1.03368e-014
lhumerus -92.0636 -44.4909 127.118
lradius 76.1921
lwrist -21.5456
lhand -43.3199 -0.742301
lfingers 7.12502
lthumb -16.1664 28.6035
rfemur 341.371 153.756 -352.124
rtibia 50.188
rfoot -355.224 -72.9502
rtoes -22.2206
lfemur -6.53025 -7.24882 -30.2317
ltibia 27.6076
lfoot -18.8188 -14.4397
ltoes -7.24339
230
root 8.68949 17.9557 -12.3018 -180.363 -1.77857 -185.346
lowerback -0.915551 0.15585 -2.29732
upperback 0.218457 0.232874 0.0556053
thorax 0.727528 0.105435 1.348
lowerneck -12.3179 1.35349 -8.53975
upperneck 28.3061 -0.22927 8.29157
head 11.1317 -0.729773 4.36398
rclavicle 4.32978e-015 7.15625e-015
rhumerus -83.8763 31.8015 -116.096
rradius 86.8925
rwrist 31.7464
rhand -47.4363 -0.0748745
rfingers 7.12502
rthumb -20.1267 -29.0523
lclavicle 4.32978e-015 7.15625e-015
lhumerus -92.3816 -44.3811 127.178
lradius 76.2587
lwrist -20.9625
lhand -43.3248 -0.69831
lfingers 7.12502
lthumb -16.1712 28.6471
rfemur 345.062 153.278 -351.249
rtibia 47.8428
rfoot -358.427 -71.0084
rtoes -21.5053
lfemur -5.66927 -6.85668 -30.8138
ltibia 27.2284
lfoot -19.3165 -14.5605
ltoes -7.28917
231
root 8.64196 17.9287 -12.488 -180.043 -1.5541 -185.735
lowerback -1.53688 0.105314 -2.16639
upperback 0.129653 0.178225 0.0108234
thorax 0.987604 0.0764852 1.22949
lowerneck -12.1896 1.51896 -8.55154
upperneck 28.3691 0.0572272 8.04728
head 11.1015 -0.639368 4.30835
rclavicle -1.05604e-016 -1.27222e-014
rhumerus -83.7343 31.4852 -115.984
rradius 87.1343
rwrist 31.4591
rhand -47.3551 -0.651679
rfingers 7.12502
rthumb -20.0486 -29.6373
lclavicle -1.05604e-016 -1.27222e-014
lhumerus -92.4477 -44.2761 127.089
lradius 76.2689
lwrist -20.6762
lhand -43.2592 -0.59013
lfingers 7.12502
lthumb -16.1079 28.7604
rfemur 349.091 152.485 -350.155
rtibia 45.471
rfoot -362.587 -69.3449
rtoes -21.6573
lfemur -5.18822 -6.20172 -31.358
ltibia 26.9592
lfoot -19.7141 -15.2988
ltoes -6.81712
232
root 8.59102 17.8967 -12.6697 -179.827 -1.2321 -186.126
lowerback -1.93385 0.104988 -2.0189
upperback 0.0488368 0.182827 -0.0186058
thorax 1.12769 0.0784605 1.11777
lowerneck -12.2233 1.70492 -8.39367
upperneck 28.5565 0.401068 7.59146
head 11.1507 -0.530401 4.15782
rclavicle 7.20594e-016 7.95139e-016
rhumerus -83.6281 31.1541 -115.853
rradius 87.5598
rwrist 30.2798
rhand -46.3045 0.520062
rfingers 7.12502
rthumb -19.0386 -28.5681
lclavicle 7.20594e-016 7.95139e-016
lhumerus -92.5747 -44.2294 127.18
lradius 76.2141
lwrist -20.1456
lhand -43.2469 -0.755093
lfingers 7.12502
lthumb -16.0961 28.5964
rfemur 353.076 151.55 -348.867
rtibia 43.1052
rfoot -366.377 -68.2033
rtoes -20.0152
lfemur -4.71359 -5.55031 -31.8696
ltibia 26.7861
lfoot -19.9641 -16.1413
ltoes -6.2167
233
root 8.54325 17.8496 -12.8504 -179.615 -0.915067 -186.682
lowerback -2.25442 0.0590349 -2.07173
upperback -0.0476056 0.128013 -0.0955016
thorax 1.21048 0.0498794 1.06755
lowerneck -12.2167 1.8909 -8.26934
upperneck 28.6958 0.762196 7.10622
head 11.1748 -0.421056 4.00198
rclavicle -2.68359e-015 5.56597e-015
rhumerus -83.6458 30.9814 -115.848
rradius 87.8164
rwrist 30.2229
rhand -45.9136 0.0733989
rfingers 7.12502
rthumb -18.6626 -29.0514
lclavicle -2.68359e-015 5.56597e-015
lhumerus -92.6075 -44.1149 127.065
lradius 76.2746
lwrist -20.1365
lhand -43.1078 -0.373258
lfingers 7.12502
lthumb -15.9622 28.989
rfemur 357.02 150.381 -347.518
rtibia 40.8645
rfoot -371.216 -67.4496
rtoes -19.7588
lfemur -4.24417 -4.88091 -32.5676
ltibia 26.6512
lfoot -20.2889 -16.7677
ltoes -6.19228
234
root 8.49967 17.8029 -13.0351 -179.297 -0.601467 -187.357
lowerback -2.77592 0.0477184 -2.29198
upperback -0.123492 0.129177 -0.207673
thorax 1.42471 0.0459531 1.07699
lowerneck -12.2549 1.99312 -8.16313
upperneck 28.8093 1.00763 6.65305
head 11.2113 -0.359449 3.84781
rclavicle -1.76421e-015 2.46493e-014
rhumerus -83.5238 30.679 -115.704
rradius 87.9668
rwrist 30.4783
rhand -45.9533 -0.285674
rfingers 7.12502
rthumb -18.7008 -29.4068
lclavicle -1.76421e-015 2.46493e-014
lhumerus -92.4449 -44.1371 126.817
lradius 76.4958
lwrist -18.374
lhand -42.3981 -1.83691
lfingers 7.12502
lthumb -15.2787 27.5788
rfemur 361.105 148.828 -345.881
rtibia 38.7476
rfoot -376.777 -66.8273
rtoes -18.7815
lfemur -3.92611 -3.85236 -33.3168
ltibia 26.5873
lfoot -20.6344 -17.8563
ltoes -5.84046
